Coordinates
version=1
nRows=7
nColumns=40
inDegrees=yes

Units are S.I. units (second, meters, Newtons, ...)
If the header above contains a line with 'inDegrees', this indicates whether rotational values are in degrees (yes) or radians (no).

endheader
time	pelvis_tilt	pelvis_list	pelvis_rotation	pelvis_tx	pelvis_ty	pelvis_tz	hip_flexion_r	hip_adduction_r	hip_rotation_r	knee_angle_r	knee_angle_r_beta	ankle_angle_r	subtalar_angle_r	mtp_angle_r	hip_flexion_l	hip_adduction_l	hip_rotation_l	knee_angle_l	knee_angle_l_beta	ankle_angle_l	subtalar_angle_l	mtp_angle_l	lumbar_extension	lumbar_bending	lumbar_rotation	arm_flex_r	arm_add_r	arm_rot_r	elbow_flex_r	pro_sup_r	wrist_flex_r	wrist_dev_r	arm_flex_l	arm_add_l	arm_rot_l	elbow_flex_l	pro_sup_l	wrist_flex_l	wrist_dev_l
      3.95000000	     -5.19740995	     -0.39255333	      2.14624614	     -0.41585317	      0.83762107	     -1.00193661	     65.73203269	     -6.84446663	      4.11202061	     36.85423452	      0.64322774	      8.78880240	      0.00000000	      0.00000000	     54.55078420	     -1.13845423	     -6.59744813	     79.84674950	      1.39358868	     17.63424420	      0.00000000	      0.00000000	    -19.45925923	     -5.84840824	     -6.76540651	     89.92737649	     -5.61747193	     41.03517143	     49.73352204	     84.79967133	      0.00000000	      0.00000000	     89.94913764	    -14.04258920	     41.80365885	     56.99151142	     78.00093521	      0.00000000	      0.00000000
      3.95500000	     -5.22273515	     -0.43968760	      2.17830043	     -0.41586738	      0.83749735	     -1.00189913	     65.76198061	     -6.84653922	      4.04639016	     36.85145731	      0.64317926	      8.75524960	      0.00000000	      0.00000000	     54.59121090	     -1.18279866	     -6.59559909	     79.87970665	      1.39416389	     17.67244148	      0.00000000	      0.00000000	    -19.46189932	     -5.80033496	     -6.77301325	     89.92715061	     -5.60707935	     41.06878760	     49.73695696	     84.18341700	      0.00000000	      0.00000000	     89.94920698	    -14.01719940	     41.71842225	     56.93265766	     80.89206523	      0.00000000	      0.00000000
      3.96000000	     -5.24760650	     -0.46399690	      2.20666492	     -0.41590567	      0.83734643	     -1.00195302	     65.78899930	     -6.85664709	      4.05054662	     36.84232643	      0.64301990	      8.76298967	      0.00000000	      0.00000000	     54.64639174	     -1.17406289	     -6.55827654	     79.90382939	      1.39458491	     17.65237536	      0.00000000	      0.00000000	    -19.46237858	     -5.78224418	     -6.77160216	     89.92732517	     -5.66276327	     41.04332562	     49.79213835	     83.97370677	      0.00000000	      0.00000000	     89.94916672	    -13.92703277	     41.61748112	     56.85993833	     81.31674932	      0.00000000	      0.00000000
      3.96500000	     -5.23377090	     -0.47622089	      2.19670141	     -0.41590913	      0.83724347	     -1.00195271	     65.77883980	     -6.83462596	      4.07079731	     36.83259393	      0.64285004	      8.79419292	      0.00000000	      0.00000000	     54.63734566	     -1.18747034	     -6.56413212	     79.91860864	      1.39484285	     17.67592997	      0.00000000	      0.00000000	    -19.48615393	     -5.77013410	     -6.81738206	     89.92715755	     -5.60317470	     41.11491156	     49.76813982	     84.40538306	      0.00000000	      0.00000000	     89.94910217	    -13.99950995	     41.74483846	     56.89081815	     79.93276658	      0.00000000	      0.00000000
      3.97000000	     -5.26703233	     -0.55514096	      2.24192761	     -0.41591267	      0.83708616	     -1.00198392	     65.79989985	     -6.84947335	      3.92320830	     36.79474906	      0.64218952	      8.77393144	      0.00000000	      0.00000000	     54.70751622	     -1.22704971	     -6.51059273	     79.97957890	      1.39590699	     17.69169546	      0.00000000	      0.00000000	    -19.46537086	     -5.69295484	     -6.81514275	     89.92744249	     -5.65332829	     41.13071709	     49.82527485	     84.52491976	      0.00000000	      0.00000000	     89.94904754	    -13.95340180	     41.81058227	     56.84824691	     78.98505971	      0.00000000	      0.00000000
      3.97500000	     -5.29966938	     -0.50326117	      2.22699178	     -0.41597021	      0.83693636	     -1.00199174	     65.84620192	     -6.83893843	      4.07102745	     36.77337395	      0.64181645	      8.83560941	      0.00000000	      0.00000000	     54.73839258	     -1.19760406	     -6.56475074	     79.96342168	      1.39562499	     17.71039363	      0.00000000	      0.00000000	    -19.44929825	     -5.76189717	     -6.77846130	     89.92749205	     -5.62295833	     41.07444883	     49.61851601	     84.05380260	      0.00000000	      0.00000000	     89.94923028	    -13.86996563	     41.72043673	     56.75135261	     81.23071914	      0.00000000	      0.00000000
      3.98000000	     -5.33665043	     -0.49936130	      2.20628787	     -0.41598557	      0.83679737	     -1.00195894	     65.89841373	     -6.80863356	      4.14558805	     36.75626781	      0.64151789	      8.84358879	      0.00000000	      0.00000000	     54.77538250	     -1.22960655	     -6.62127527	     79.96380298	      1.39563164	     17.73080903	      0.00000000	      0.00000000	    -19.41862862	     -5.78513606	     -6.77897987	     89.92756488	     -5.60721805	     41.12673568	     49.61593093	     84.35759703	      0.00000000	      0.00000000	     89.94914555	    -13.88850930	     41.82624332	     56.83056538	     79.04942022	      0.00000000	      0.00000000
